<svg width="70" height="68" viewBox="0 0 70 68" fill="none" xmlns="http://www.w3.org/2000/svg">
<g clip-path="url(#clip0_2_1584)">
<path d="M62.0988 66.0326C62.2222 66.7704 60.7407 67.3852 58.3951 67.6311C57.6543 67.7541 56.6667 67.7541 55.679 67.877C49.0123 68.2459 38.7654 67.877 32.5926 67.877C27.7778 67.877 20.2469 68.123 13.5802 68C8.51852 68 3.95062 67.6311 1.60494 67.0163C0.617284 66.6474 0 66.2785 0 65.7866C0.123457 63.8192 0.864198 62.8355 1.35802 62.2206C1.60494 61.9747 1.72839 61.7288 1.85185 61.4828C1.97531 61.2369 2.09877 60.991 2.09877 60.6221C2.09877 60.2532 1.85185 59.1465 1.48148 57.5479C0.617284 53.3671 -0.740741 45.8662 1.23457 39.349C2.22222 36.0289 3.7037 33.8156 5.06173 32.094C5.55556 31.4792 6.04938 30.8644 6.54321 30.3725C6.91358 30.0036 7.28395 29.6347 7.53086 29.2658C8.76543 28.0362 9.38272 27.2984 8.39506 26.3147C8.27161 26.1917 8.14815 26.1917 8.14815 26.1917C7.16049 25.085 5.06173 23.3635 3.7037 21.519C2.34568 19.5515 1.85185 17.4611 4.19753 15.8626C13.8272 9.09947 46.7901 12.1736 56.7901 20.2893C58.0247 21.2731 58.3951 22.3798 58.2716 23.4864C58.1481 24.2242 57.9012 24.8391 57.5309 25.5769C56.4198 27.4213 54.5679 29.2658 53.3333 30.2496C52.5926 30.8644 52.716 31.3562 53.3333 31.9711C53.5802 32.217 53.9506 32.5859 54.321 32.9548C55.679 34.3074 57.9012 36.5208 59.5062 40.5787C59.7531 41.0705 59.8765 41.5624 60 42.1772C62.3457 49.5552 60.4938 57.9168 60.1235 60.6221C60.1235 60.991 60 61.2369 60 61.3599C59.8765 62.4666 61.8518 62.9584 62.0988 66.0326Z" fill="url(#paint0_radial_2_1584)"/>
<path opacity="0.7" d="M54.1975 32.9548C52.4691 31.4792 51.6049 32.8318 49.8765 34.7993C46.4198 38.8571 38.0247 44.5136 28.0247 43.5298C19.1358 42.6691 14.4444 32.7089 6.54321 30.4955C8.39506 28.528 9.62963 27.6673 8.51852 26.4376C10 27.7902 19.6296 36.1519 31.9753 38.6112C44.5679 41.0705 57.037 25.9457 57.4074 25.5768C56.2963 27.4213 54.4444 29.2658 53.2099 30.2495C52.3457 30.9873 52.963 31.6022 54.1975 32.9548Z" fill="#E37478"/>
<path opacity="0.3" d="M60.3704 57.0561L60 60.6221L59.8766 61.3599C59.8766 61.3599 50.9877 63.9421 48.7655 65.9096C46.4198 68 58.3951 67.5081 58.3951 67.5081C52.2223 68.2459 39.6297 67.7541 32.5926 67.7541C24.0741 67.7541 7.03708 68.4919 1.60498 66.8933C2.22226 67.0163 9.62967 68 13.5803 66.5244C17.0371 65.2948 6.54325 63.4503 1.97535 61.3599C2.09881 61.1139 2.22226 60.868 2.22226 60.4991C2.22226 60.1302 1.97535 59.0235 1.60498 57.425C1.60498 57.425 9.50622 66.5244 33.5803 65.6637C55.8025 65.0488 60.3704 57.0561 60.3704 57.0561Z" fill="#BE2F55"/>
<path opacity="0.3" d="M38.5184 39.349C36.79 38.9801 44.9382 36.1519 48.1481 34.0615C51.8518 31.4792 52.8394 30.8644 52.469 31.4792C52.0987 32.094 46.2962 41.1935 38.5184 39.349Z" fill="#BE2F55"/>
<path opacity="0.3" d="M9.25928 26.9295C9.01237 26.8065 10.7408 30.6185 11.4815 31.9711C12.2222 33.3237 18.3951 40.0868 22.7161 41.6854C26.9136 43.2839 26.9136 40.0868 25.4321 37.6275C23.8272 35.1682 19.7531 35.2911 9.25928 26.9295Z" fill="#BE2F55"/>
<path opacity="0.5" d="M59.9999 60.6221C59.9999 60.991 59.8765 61.2369 59.8765 61.3599C59.8765 61.3599 50.6172 63.5732 49.3826 65.4177C48.5184 66.7703 52.9629 67.5081 55.6789 67.877C49.0123 68.2459 38.7654 67.877 32.5925 67.877C27.7777 67.877 20.2468 68.123 13.5802 68C13.8271 67.6311 13.9505 67.1392 14.074 66.6474C14.4444 64.1881 5.18512 62.5895 1.48141 62.0977C1.72833 61.8517 1.85178 61.6058 1.97524 61.3599C2.0987 61.1139 2.22215 60.868 2.22215 60.4991C2.22215 60.1302 1.97524 59.0235 1.60487 57.425C0.740671 53.2441 -0.617353 45.7432 1.35796 39.226C2.34561 35.906 3.82709 33.6926 5.18512 31.9711C-0.37044 38.7342 8.6419 63.4503 33.5802 65.0488C56.4197 66.7703 59.8765 47.9566 59.3826 40.5787C59.6296 41.0705 59.753 41.5624 59.8765 42.1772C62.2222 49.5552 60.3703 57.9168 59.9999 60.6221Z" fill="#E37478"/>
<path opacity="0.5" d="M14.1974 68C14.1974 68 13.8271 66.6474 28.148 65.9096C41.8517 65.1718 49.9999 68 49.9999 68C49.9999 68 42.3456 67.877 33.2098 67.877C23.8271 67.7541 14.1974 68 14.1974 68Z" fill="#BE2F55"/>
<path opacity="0.5" d="M8.02465 17.4611C6.54317 18.5678 13.0864 22.3797 19.3827 28.2821C25.5555 33.9385 38.7654 33.0777 46.2963 30.0036C53.5802 27.0524 52.5925 19.3056 47.2839 17.2152C41.8518 15.0018 39.2592 17.5841 27.4074 15.2477C15.1851 13.0343 11.1111 15.3707 8.02465 17.4611Z" fill="#BE2F55"/>
<path opacity="0.3" d="M8.02464 18.5678C6.4197 15.9855 17.5308 14.1411 23.5802 16.7233C29.3827 19.3056 25.3086 31.4792 24.3209 31.1103C23.3333 30.7414 19.9999 28.528 15.8024 25.208C11.6049 21.7649 9.13575 20.1664 8.02464 18.5678Z" fill="#BE2F55"/>
<path opacity="0.3" d="M41.1112 16.7233C36.7902 17.2152 34.6915 28.774 35.5557 31.1103C36.2964 33.4467 46.6668 30.8644 50.1236 27.5443C53.3334 24.3472 52.8396 15.6166 41.1112 16.7233Z" fill="#BE2F55"/>
<path opacity="0.5" d="M2.8396 17.3382C3.20997 20.7812 14.6915 32.34 30.7408 35.5371C45.926 38.6112 58.0248 26.6836 57.4075 22.5027C56.4198 15.7396 40.1236 14.1411 27.4075 12.6655C14.1976 11.1899 4.93837 14.8788 5.30874 16.3544C5.67911 17.83 6.29639 17.7071 8.02478 16.6004C9.75318 15.4937 16.9137 13.4033 23.5803 14.8789C30.1236 16.2315 47.9013 15.6166 51.8519 19.5515C55.5556 23.3635 48.1482 32.7089 34.3211 32.4629C19.8766 32.094 11.2347 24.2242 8.76553 20.9042C6.29639 17.4611 2.8396 17.3382 2.8396 17.3382Z" fill="white"/>
<path opacity="0.5" d="M58.2715 23.4864C58.1481 24.2242 57.9011 24.8391 57.5308 25.5768C56.4197 27.4213 54.5678 29.2658 53.3332 30.2495C52.5925 30.8644 52.716 31.3562 53.3332 31.9711C52.5925 31.6022 43.2098 45.4973 30.2468 43.1609C17.9011 40.9475 10.3703 33.5696 7.77769 29.5117C9.01226 28.2821 9.62954 27.5443 8.64188 26.5606C8.51843 26.4376 8.39497 26.4376 8.39497 26.4376C7.1604 25.085 5.06164 23.3635 3.70361 21.519C4.07398 22.0108 17.7777 35.906 33.8271 35.906C49.1357 36.0289 57.9011 23.8553 58.2715 23.4864Z" fill="#BE2F55"/>
<path opacity="0.3" d="M48.7655 65.2948C45.6791 64.311 54.1976 58.6546 57.5309 49.8011C60.8643 40.9476 60.8643 53.736 60.8643 53.736C60.8643 53.736 59.8766 60.2532 59.2593 60.991C58.6421 61.8517 48.7655 65.2948 48.7655 65.2948Z" fill="#BE2F55"/>
<path opacity="0.3" d="M14.6913 65.7866C11.1111 65.4177 2.46912 60.6221 1.72838 58.0398C1.11109 55.4575 0.493808 44.2676 1.97529 43.2839C3.45677 42.3002 11.2345 59.6383 24.9383 64.434C37.9012 69.1067 14.6913 65.7866 14.6913 65.7866Z" fill="#BE2F55"/>
<path d="M32.5925 53.613C31.4814 52.3834 32.469 51.5226 33.4567 51.1537C34.4443 50.9078 37.9011 54.2279 38.5184 54.2279C38.5184 54.2279 39.6295 51.6456 39.5061 50.7848C39.3826 50.17 37.7777 47.8336 35.6789 46.604C35.6789 45.0054 35.5554 43.8987 35.5554 43.7758C35.1851 43.4069 32.0986 43.5298 31.3579 43.6528C31.2344 43.6528 31.2344 44.7595 31.2344 46.3581C29.0122 47.8336 27.6542 51.8915 28.7653 54.4738C30.1233 57.7939 35.3085 56.4412 36.0493 57.302C36.79 58.1628 34.8147 60.3761 33.5801 60.2532C33.4567 60.2532 33.4567 60.2532 33.3332 60.2532C32.2221 59.8843 31.7283 57.5479 30.9875 57.302C30.2468 57.0561 28.5184 57.7939 28.148 58.9006C27.9011 59.8843 30.6172 61.7288 32.7159 62.7125C32.8394 63.8192 33.0863 64.434 33.0863 64.557C33.0863 64.557 34.8147 64.9259 35.0616 64.557C35.0616 64.434 35.1851 63.8192 35.1851 62.7125C37.0369 61.6058 38.8888 58.7776 39.3826 57.425C40.2468 54.9657 33.7036 54.8427 32.5925 53.613Z" fill="url(#paint1_linear_2_1584)"/>
<path opacity="0.2" d="M30.3703 54.9657C30.1234 55.8264 36.0493 56.5642 36.5431 57.0561C37.037 57.425 35.5555 59.6384 35.8024 60.1302C36.0493 60.6221 39.0123 58.0398 39.2592 56.6872C39.5061 55.3346 34.4444 54.8427 33.0863 54.1049C31.6049 53.3671 30.3703 54.9657 30.3703 54.9657Z" fill="#E02774"/>
<path d="M36.4197 47.0958C34.8147 46.1121 35.3086 48.8174 37.037 50.2929C38.8888 51.8915 39.2592 48.8174 36.4197 47.0958Z" fill="white"/>
<path opacity="0.5" d="M48.5184 55.2116C48.0246 57.179 44.8147 65.4177 45.8023 66.8933C46.79 68.3689 55.0616 68.123 57.7777 67.6311C60.4937 67.2622 61.3579 58.5316 61.3579 58.5316L48.5184 55.2116Z" fill="#BE2F55"/>
<path d="M56.1729 67.2622C54.8149 66.7703 53.4569 66.1555 52.3457 65.4177C51.9754 65.1718 51.605 64.9259 51.3581 64.6799C50.7408 64.1881 50.1235 63.5732 49.6297 62.8354C49.3828 62.5895 49.2593 62.2206 49.0124 61.9747C48.7655 61.6058 48.5186 61.1139 48.3951 60.745C47.9013 59.5154 47.7778 58.1628 48.1482 56.9331V56.8101C48.1482 56.6872 48.1482 56.6872 48.2717 56.5642V56.4412V56.3183V56.1953C48.2717 56.1953 48.2717 56.1953 48.2717 56.0723C48.3951 55.7034 48.642 55.3345 49.0124 54.9656C49.1359 54.7197 49.3828 54.5968 49.6297 54.3508C51.9754 52.1374 56.2964 51.2767 60.6173 52.6293C61.3581 52.8752 62.0988 53.1212 62.7161 53.4901C66.0494 55.0886 68.2717 57.7939 68.642 60.4991C68.7655 61.1139 68.7655 61.7288 68.642 62.3436C68.642 62.3436 68.642 62.3436 68.642 62.4665C68.642 62.7125 68.5186 62.9584 68.5186 63.2043V63.3273C67.9013 65.2948 66.1729 66.7703 63.9507 67.3852H63.8272C61.605 68.123 58.889 68.123 56.1729 67.2622Z" fill="url(#paint2_linear_2_1584)"/>
<path d="M48.1482 57.179V56.9331V56.8101L48.5186 55.2116L48.7655 54.4738L48.8889 53.9819H49.0124L49.3828 54.1049L49.7531 54.2279L61.7284 58.1628L68.8889 60.4991L69.3828 60.6221L69.6297 60.745H69.7531L69.2593 61.6058L68.642 63.2044H68.5186H68.3951L68.2716 63.0814H68.1482L63.0865 61.6058L49.3828 57.5479L48.642 57.302H48.2716L48.1482 57.179Z" fill="url(#paint3_linear_2_1584)"/>
<path d="M56.9137 64.9259C55.4322 64.434 54.1976 63.8192 53.0865 63.0814C53.0865 63.0814 52.9631 62.9584 52.7162 62.8354C52.5927 62.8354 52.5927 62.7125 52.4692 62.5895C51.6051 61.9747 50.9878 61.2369 50.3705 60.4991C50.247 60.3761 50.247 60.2532 50.1236 60.1302C49.5063 59.2694 49.0125 58.2857 48.7655 57.302C48.6421 56.8101 48.6421 56.3183 48.6421 55.9494C48.6421 55.8264 48.6421 55.7034 48.6421 55.5805C48.6421 55.4575 48.6421 55.3345 48.6421 55.2116C48.6421 54.8427 48.7655 54.4738 48.889 54.1049V53.9819C49.1359 53.2441 49.5063 52.6293 50.0001 52.1374C50.1236 52.0145 50.1236 52.0145 50.247 51.8915C50.8643 51.2767 51.6051 50.7848 52.4692 50.4159C53.0865 50.047 53.8273 49.924 54.568 49.6781C56.6668 49.1863 59.1359 49.3092 61.6051 50.047C63.4569 50.6618 65.0618 51.5226 66.2964 52.5063C66.2964 52.5063 66.2964 52.5063 66.4199 52.6293C68.5186 54.3508 69.7532 56.4412 69.8767 58.6546C69.8767 58.7776 69.8767 58.9005 69.8767 59.0235C69.8767 59.1465 69.8767 59.1465 69.8767 59.2694C69.8767 59.3924 69.8767 59.5154 69.8767 59.6383C69.8767 59.7613 69.8767 59.7613 69.8767 59.8843C69.8767 60.2532 69.7532 60.6221 69.6297 60.868C69.5063 61.2369 69.3828 61.4828 69.2594 61.8517C69.1359 62.0976 69.0125 62.3436 68.7655 62.5895C68.6421 62.7125 68.6421 62.7125 68.5186 62.8354C68.3952 62.9584 68.2717 63.2043 68.1483 63.3273C65.8026 65.5407 61.3581 66.2785 56.9137 64.9259Z" fill="url(#paint4_linear_2_1584)"/>
<path opacity="0.5" d="M57.4074 49.4322C56.6666 49.5552 57.7777 55.4575 57.9012 58.0398C58.0247 60.6221 55.9259 63.9421 56.1728 64.434C56.4197 64.8029 61.2345 65.9096 63.8271 65.2948C66.4197 64.6799 64.074 63.9421 63.4568 62.2206C62.8395 60.4991 62.5926 54.3508 63.0864 53.2441C63.5802 52.1374 64.321 51.8915 64.4444 51.5226C64.5679 51.1537 61.1111 48.8174 57.4074 49.4322Z" fill="white"/>
<path d="M57.7779 62.2206C54.1976 61.1139 51.852 58.1628 52.3458 55.5805C52.3458 55.4575 52.3458 55.3346 52.4692 55.2116C53.3334 52.5063 57.0371 51.2767 60.8643 52.5063C64.6915 53.736 67.0371 56.8101 66.1729 59.5154C66.1729 59.6383 66.0495 59.7613 66.0495 59.8843C64.9384 62.3436 61.3581 63.3273 57.7779 62.2206Z" fill="url(#paint5_linear_2_1584)"/>
<path d="M57.7779 62.2206C54.1976 61.1139 51.852 58.1627 52.3458 55.5805C53.4569 53.1212 57.0371 52.1374 60.6174 53.2441C64.1976 54.3508 66.5433 57.302 66.0495 59.8843C64.9384 62.3436 61.3581 63.3273 57.7779 62.2206Z" fill="#FF9304"/>
<path d="M59.8767 49.5552C62.2224 49.9241 58.1483 53.1212 56.4199 49.4322C56.4199 49.4322 58.0249 49.3092 59.8767 49.5552Z" fill="white"/>
<path opacity="0.5" d="M52.963 63.0814C52.963 63.0814 52.8395 62.9584 52.5926 62.8354C52.0988 62.4665 51.1111 61.7288 50.247 60.6221C49.5062 59.7613 48.8889 58.6546 48.642 57.425C48.5186 57.0561 48.5186 56.5642 48.5186 56.0723C48.5186 55.9494 48.5186 55.8264 48.5186 55.8264C48.5186 55.7034 48.5186 55.4575 48.5186 55.3345C48.5186 55.3345 48.5186 55.3345 48.5186 55.2116C48.5186 55.2116 48.5186 55.2116 48.5186 55.0886C48.5186 54.8427 48.642 54.5967 48.642 54.4738C48.642 54.3508 48.7655 54.1049 48.7655 53.9819C49.1358 53.1212 49.5062 52.3834 50 51.8915C50.9877 50.9078 51.9753 50.4159 52.2223 50.4159C52.4692 50.2929 51.2346 51.0307 50.1235 52.3834C49.7531 52.8752 49.3828 53.4901 49.1358 54.2278C49.0124 54.4738 49.0124 54.7197 49.0124 54.9656C49.0124 55.0886 49.0124 55.0886 49.0124 55.2116C48.8889 56.0723 49.0124 56.9331 49.2593 57.6709C50.247 60.6221 52.7161 62.8354 52.963 63.0814Z" fill="white"/>
<path d="M55.3087 52.5063C55.3087 52.5063 50.7408 55.0886 53.0865 58.9005C53.0865 58.9005 50 54.4738 55.3087 52.5063Z" fill="#FFE016"/>
<path opacity="0.5" d="M62.963 53.3671C61.7285 53.1212 65.1853 55.2116 65.3087 58.5316C65.4322 61.8517 59.7532 62.5895 59.7532 62.5895C59.7532 62.5895 64.8149 63.5732 66.1729 59.3924C67.284 56.1953 62.963 53.3671 62.963 53.3671Z" fill="#D42F55"/>
<path opacity="0.8" d="M64.0742 67.3852C64.3211 67.2622 65.0619 67.0163 65.8026 66.5244C66.6668 65.9096 67.7779 64.8029 68.5187 63.3273C68.5187 63.3273 68.5187 63.3273 68.5187 63.2043C68.6421 62.9584 68.7656 62.7125 68.889 62.4665C68.889 62.4665 68.889 62.4665 68.889 62.3436V62.2206C69.0125 61.8517 69.1359 61.3599 69.2594 60.868C69.2594 60.745 69.2594 60.6221 69.2594 60.4991C69.7532 58.0398 69.0125 56.0723 68.1483 54.5967C67.4076 53.4901 66.6668 52.6293 66.2964 52.3834C68.3952 54.1049 69.6298 56.1953 69.7532 58.4087C69.7532 58.5316 69.7532 58.6546 69.7532 58.7776V58.9005C69.7532 58.9005 69.7532 58.9005 69.7532 59.0235C69.7532 59.1465 69.7532 59.2694 69.7532 59.3924C69.7532 59.5154 69.7532 59.5154 69.7532 59.6383C69.7532 60.0072 69.6298 60.3761 69.5063 60.6221C69.3829 60.991 69.2594 61.2369 69.1359 61.6058L68.5187 63.2043C68.0248 65.1718 66.2964 66.6474 64.0742 67.3852Z" fill="#D42F55"/>
<path opacity="0.8" d="M49.6297 62.8354C49.3828 62.5895 49.2593 62.2206 49.0124 61.9747C48.7655 61.4828 48.5186 61.1139 48.3951 60.745C47.9013 59.5154 47.7778 58.1627 48.1482 56.9331L48.5186 55.3345C48.5186 54.9656 48.642 54.5967 48.7655 54.2278V54.1049C49.0124 53.3671 49.3828 52.7523 49.8766 52.2604C50.0001 52.1374 50.0001 52.1374 50.1235 52.0145C51.1112 51.0307 52.0988 50.5389 52.3457 50.5389C52.963 50.17 53.7038 50.047 54.4445 49.8011C54.321 49.8011 51.9754 50.6618 50.247 52.5063C49.7531 52.9982 49.2593 53.613 48.8889 54.3508C48.642 54.8427 48.5186 55.3345 48.3951 55.9494V56.0723C48.3951 56.1953 48.3951 56.3183 48.2717 56.5642C48.2717 56.5642 48.2717 56.5642 48.2717 56.6872C48.2717 57.0561 48.1482 57.425 48.1482 57.6709C48.0248 60.3761 49.0124 62.4665 49.3828 63.0814C49.5062 62.7125 49.6297 62.8354 49.6297 62.8354Z" fill="#D42F55"/>
<path d="M59.7531 65.2947C57.284 64.5569 63.5803 62.3436 65.3087 62.3436C67.0371 62.3436 66.5433 64.0651 65.3087 64.8029C64.0741 65.4177 60.9877 65.6636 59.7531 65.2947Z" fill="white"/>
<path d="M40.3707 32.9548C38.8892 33.3237 37.5312 33.4467 36.1731 33.3237C35.8028 33.3237 35.3089 33.3237 34.9386 33.2007C34.0744 33.0778 33.3336 32.8318 32.4694 32.5859C32.0991 32.4629 31.8521 32.34 31.4818 32.217C31.1114 31.9711 30.6176 31.7252 30.3707 31.4792C29.2595 30.6185 28.5188 29.6347 28.1484 28.4051V28.2821C28.1484 28.1592 28.1484 28.1592 28.1484 28.0362V27.9132V27.7903V27.6673C28.1484 27.6673 28.1484 27.6673 28.1484 27.5443C28.1484 27.1754 28.1484 26.6836 28.1484 26.3147C28.1484 26.0687 28.2719 25.6998 28.2719 25.4539C29.1361 22.2568 32.346 19.4286 36.7904 18.3219C37.5312 18.076 38.2719 17.953 39.0126 17.953C42.7163 17.5841 45.9262 18.6908 47.7781 20.7812C48.1484 21.2731 48.5188 21.7649 48.7657 22.2568C48.8892 22.5027 48.8892 22.7487 49.0126 22.9946V23.1176C49.5065 25.085 48.7657 27.2984 47.2842 29.0199C47.2842 29.0199 47.2842 29.0199 47.1608 29.1429C45.5558 30.8644 43.2102 32.217 40.3707 32.9548Z" fill="url(#paint6_linear_2_1584)"/>
<path d="M28.2718 28.651L28.1483 28.2821L27.6545 26.6835L27.4076 25.9457L27.1606 25.4539H27.2841H27.4076L27.7779 25.3309L28.1483 25.208L40.3705 22.2568L47.6545 20.5353L48.1483 20.4123H48.5187L48.6421 21.396L48.889 23.1175H48.7656H48.5187L48.3952 23.2405L43.3335 24.5931L29.5063 28.2821L28.889 28.4051H28.7656L28.5187 28.528H28.3952L28.2718 28.651Z" fill="url(#paint7_linear_2_1584)"/>
<path d="M39.7533 30.6185C38.2718 30.9873 36.7903 31.1103 35.4323 30.9874C35.4323 30.9874 35.1854 30.9874 35.0619 30.9874C34.9385 30.9874 34.815 30.9874 34.6916 30.9874C33.7039 30.8644 32.7163 30.6185 31.8521 30.3725C31.7286 30.3725 31.6052 30.2496 31.4817 30.2496C30.494 29.7577 29.5064 29.2658 28.7656 28.528C28.3953 28.1591 28.1484 27.7902 27.9014 27.4213C27.778 27.2984 27.778 27.1754 27.6545 27.0524C27.6545 26.9295 27.5311 26.8065 27.5311 26.8065C27.4076 26.4376 27.2842 26.0687 27.1607 25.8228V25.6998C27.0373 24.962 27.0373 24.2242 27.1607 23.4864C27.1607 23.3635 27.1607 23.2405 27.1607 23.2405C27.4076 22.3798 27.6545 21.642 28.2718 20.7812C28.6422 20.1664 29.136 19.5515 29.7533 19.0597C31.3582 17.5841 33.457 16.3544 36.0496 15.7396C37.9014 15.2477 39.7533 15.2477 41.3582 15.3707C41.3582 15.3707 41.3582 15.3707 41.4817 15.3707C44.0743 15.7396 46.2965 16.9693 47.6545 18.6908C47.778 18.8138 47.778 18.9367 47.9014 19.0597L48.0249 19.1826C48.0249 19.3056 48.1484 19.4286 48.1484 19.5515C48.1484 19.5515 48.1484 19.6745 48.2718 19.6745C48.3953 20.0434 48.5187 20.2893 48.6422 20.6582C48.7656 21.0271 48.7656 21.2731 48.7656 21.642C48.7656 21.8879 48.7656 22.2568 48.7656 22.5027C48.7656 22.6257 48.7656 22.7487 48.7656 22.8716C48.7656 23.1175 48.6422 23.2405 48.6422 23.4864C47.778 26.4376 44.3212 29.5118 39.7533 30.6185Z" fill="url(#paint8_linear_2_1584)"/>
<path opacity="0.5" d="M32.0991 17.0922C31.4818 17.5841 35.5558 22.0109 37.0373 24.2242C38.3954 26.4376 38.5188 30.2496 38.8892 30.4955C39.2595 30.7414 43.9509 29.1429 45.9262 27.2984C47.9015 25.3309 45.4324 26.0687 43.9509 24.962C42.4694 23.8553 39.1361 18.6908 38.8892 17.4611C38.7657 16.2315 39.2596 15.6166 39.1361 15.2477C38.8892 14.7559 34.9386 14.7559 32.0991 17.0922Z" fill="white"/>
<path d="M39.136 27.9132C35.4322 28.774 31.9755 27.5443 30.9878 25.085C30.9878 24.962 30.8643 24.8391 30.8643 24.7161C30.1236 22.0108 32.7162 18.9367 36.6668 18.0759C40.494 17.0922 44.1977 18.5678 44.9384 21.2731C44.9384 21.396 44.9384 21.519 45.0619 21.642C45.3088 24.2242 42.8397 26.9295 39.136 27.9132Z" fill="url(#paint9_linear_2_1584)"/>
<path d="M39.136 27.9132C35.4323 28.774 31.9755 27.5443 30.9879 25.085C30.6175 22.5027 33.0866 19.6745 36.7903 18.8137C40.494 17.953 43.9508 19.1826 44.9385 21.642C45.3089 24.2242 42.8397 26.9295 39.136 27.9132Z" fill="#FF9304"/>
<path d="M34.3213 15.9855C36.5435 15.1248 34.6917 19.9204 31.2349 17.7071C31.2349 17.7071 32.5929 16.7233 34.3213 15.9855Z" fill="white"/>
<path opacity="0.5" d="M35.4323 30.9873C35.4323 30.9873 35.1854 30.9873 35.0619 30.9873C34.4446 30.9873 33.2101 30.7414 31.8521 30.2495C30.7409 29.8807 29.6298 29.2658 28.7656 28.4051C28.5187 28.1591 28.1484 27.7902 28.0249 27.4213C28.0249 27.2984 27.9014 27.2984 27.9014 27.1754C27.778 27.0524 27.778 26.9295 27.6545 26.8065C27.6545 26.8065 27.6545 26.8065 27.6545 26.6835C27.5311 26.4376 27.5311 26.1917 27.4076 26.0687C27.4076 25.9458 27.2842 25.6998 27.2842 25.5769C27.0372 24.5931 27.1607 23.8553 27.2842 23.1175C27.5311 21.7649 28.2718 20.7812 28.3953 20.6582C28.5187 20.4123 27.9014 21.642 27.6545 23.3635C27.5311 23.9783 27.6545 24.7161 27.778 25.4539C27.9014 25.6998 27.9014 25.9458 28.0249 26.1917C28.0249 26.3146 28.0249 26.3146 28.1484 26.4376C28.5187 27.1754 29.0126 27.9132 29.6298 28.4051C31.8521 30.3725 35.1854 30.9873 35.4323 30.9873Z" fill="white"/>
<path d="M31.8522 20.7812C31.8522 20.7812 29.2596 25.3309 33.3336 27.4213C33.3336 27.5443 28.3954 25.3309 31.8522 20.7812Z" fill="#FFE016"/>
<path opacity="0.5" d="M38.8891 17.7071C37.7779 18.1989 41.7286 18.076 43.7039 20.9042C45.6792 23.7324 41.1113 27.2984 41.1113 27.2984C41.1113 27.2984 45.9261 25.4539 44.9384 21.1501C44.0742 17.7071 38.8891 17.7071 38.8891 17.7071Z" fill="#D42F55"/>
<path opacity="0.8" d="M47.1607 29.0199C47.2842 28.774 47.778 28.2821 48.1484 27.4213C48.6422 26.4376 49.0126 24.962 48.7656 23.2405C48.7656 23.2405 48.7656 23.2405 48.7656 23.1175C48.7656 22.8716 48.6422 22.6257 48.6422 22.2568C48.6422 22.2568 48.6422 22.2568 48.6422 22.1338V22.0108C48.5187 21.6419 48.3953 21.1501 48.2718 20.6582C48.2718 20.5353 48.1484 20.4123 48.1484 20.4123C47.2842 18.0759 45.5558 16.7233 44.1977 15.9855C42.9632 15.3707 41.9755 15.1248 41.4817 15.0018C44.0743 15.3707 46.2965 16.6004 47.6545 18.3219C47.778 18.4448 47.778 18.5678 47.9014 18.6908C47.9014 18.6908 47.9014 18.8137 48.0249 18.8137C48.0249 18.9367 48.1484 19.0597 48.1484 19.1826C48.1484 19.1826 48.1484 19.3056 48.2718 19.3056C48.3953 19.6745 48.5187 19.9204 48.6422 20.2893C48.7656 20.6582 48.7656 20.9042 48.7656 21.273L49.0126 22.9946C49.3829 25.085 48.6422 27.1754 47.1607 29.0199Z" fill="#D42F55"/>
<path opacity="0.8" d="M32.4694 32.5859C32.0991 32.4629 31.8521 32.34 31.4818 32.217C30.9879 31.9711 30.6176 31.7252 30.3707 31.4792C29.2596 30.6185 28.5188 29.6347 28.1484 28.4051L27.6546 26.8065C27.5312 26.4376 27.4077 26.0687 27.2842 25.8228V25.6998C27.1608 24.962 27.1608 24.2242 27.2842 23.4865C27.2842 23.3635 27.2842 23.2405 27.2842 23.2405C27.5312 21.8879 28.2719 20.9042 28.3954 20.7812C28.7657 20.1664 29.2596 19.5516 29.8768 19.0597C29.7534 19.1827 28.2719 21.0271 27.7781 23.4865C27.6546 24.2242 27.5312 24.962 27.6546 25.6998C27.6546 26.1917 27.7781 26.8065 28.025 27.2984V27.4214C28.025 27.5443 28.1484 27.6673 28.1484 27.7903C28.1484 27.7903 28.1484 27.7903 28.1484 27.9132C28.2719 28.2821 28.3954 28.528 28.6423 28.774C30.0003 31.2333 31.8521 32.34 32.4694 32.7089C32.346 32.5859 32.4694 32.5859 32.4694 32.5859Z" fill="#D42F55"/>
<path d="M18.1482 26.5606C16.6667 26.1917 15.4321 25.6998 14.1975 25.085C13.8272 24.8391 13.4568 24.5931 13.0864 24.3472C12.3457 23.8553 11.7284 23.2405 11.2346 22.7487C11.1111 22.3798 10.8642 22.1338 10.7408 21.8879C10.4938 21.519 10.2469 21.1501 10 20.6582C9.38273 19.4286 9.25928 18.1989 9.50619 16.9693V16.8463C9.50619 16.7233 9.50619 16.7233 9.62965 16.6004V16.4774V16.3544V16.2315C9.62965 16.2315 9.62965 16.2315 9.62965 16.1085C9.87656 15.4937 10.1235 15.1248 10.3704 14.7559C10.4938 14.51 10.7408 14.264 10.8642 14.1411C13.0864 11.6817 17.284 10.5751 21.7284 11.6817C22.4692 11.8047 23.2099 12.0506 23.9506 12.4195C27.4074 13.7722 29.7531 16.2315 30.3704 18.9367C30.4938 19.5515 30.6173 20.1664 30.4938 20.7812C30.4938 20.7812 30.4938 20.7812 30.4938 20.9042C30.4938 21.1501 30.4938 21.396 30.3704 21.642V21.7649C29.8766 23.7324 28.2716 25.3309 26.0494 26.1917H25.9259C23.7037 26.9295 20.9877 27.1754 18.1482 26.5606Z" fill="url(#paint10_linear_2_1584)"/>
<path d="M9.38281 17.0922L9.50627 16.8463L9.75318 15.1248L9.87664 14.387V13.8951H10.0001H10.1236L10.4939 14.0181L10.8643 14.141L22.9631 17.0922L30.3705 18.8137L30.8643 18.9367L31.2347 19.0597L30.8643 19.9204L30.3705 21.6419H30.247H30.1236L30.0001 21.519H29.8766L24.6915 20.4123L10.7408 17.4611L10.0001 17.2152H9.87664H9.62973H9.50627L9.38281 17.0922Z" fill="url(#paint11_linear_2_1584)"/>
<path d="M18.7655 24.2242C17.284 23.8553 15.926 23.3635 14.6914 22.6257C14.6914 22.6257 14.568 22.5027 14.3211 22.3798C14.1976 22.3798 14.1976 22.2568 14.0742 22.2568C13.21 21.642 12.4692 21.0271 11.8519 20.4123C11.7285 20.2893 11.7285 20.1664 11.605 20.1664C10.8643 19.3056 10.3705 18.3219 10.0001 17.4611C9.87663 16.9693 9.75317 16.6004 9.75317 16.1085C9.75317 15.9855 9.75317 15.8626 9.75317 15.7396C9.75317 15.6166 9.75317 15.4937 9.75317 15.3707C9.75317 15.0018 9.75317 14.6329 9.87663 14.264V14.1411C10.1235 13.4033 10.3705 12.7884 10.8643 12.1736C10.8643 12.0506 10.9877 12.0506 10.9877 11.9277C11.4816 11.3129 12.2223 10.698 13.0865 10.2062C13.7038 9.83726 14.4445 9.59133 15.1853 9.3454C17.284 8.36168 19.7532 8.36168 22.3458 8.85354C24.1976 9.22244 25.8026 10.0832 27.284 10.944C27.284 10.944 27.284 10.944 27.4075 11.0669C29.6297 12.5425 30.9877 14.6329 31.3581 16.7233C31.3581 16.8463 31.3581 16.9693 31.3581 17.0922C31.3581 17.2152 31.3581 17.2152 31.3581 17.3382C31.3581 17.4611 31.3581 17.5841 31.3581 17.7071C31.3581 17.83 31.3581 17.83 31.3581 17.953C31.3581 18.3219 31.3581 18.6908 31.2347 18.9367C31.1112 19.3056 31.1112 19.5516 30.8643 19.9204C30.7408 20.1664 30.6174 20.4123 30.4939 20.6582C30.4939 20.7812 30.3705 20.7812 30.3705 20.9042C30.247 21.0271 30.1235 21.2731 30.0001 21.396C27.7779 24.1013 23.3334 25.208 18.7655 24.2242Z" fill="url(#paint12_linear_2_1584)"/>
<path opacity="0.5" d="M18.1483 8.60759C17.4076 8.73056 19.0125 14.6329 19.2594 17.0922C19.5063 19.6745 17.7779 23.1175 18.0249 23.6094C18.2718 23.9783 23.0866 24.7161 25.6792 23.8553C28.2718 22.9946 25.9261 22.5027 25.0619 20.9042C24.1977 19.3056 23.5804 13.1573 24.0742 11.9277C24.5681 10.698 25.1853 10.575 25.3088 10.0832C25.1853 9.71428 21.7286 7.8698 18.1483 8.60759Z" fill="white"/>
<path d="M19.3827 21.396C15.679 20.5353 13.0864 17.83 13.4568 15.1248C13.4568 15.0018 13.4568 14.8788 13.5803 14.7559C14.1976 12.0506 17.9013 10.575 21.7284 11.4358C25.5556 12.2966 28.2716 15.2477 27.5309 18.076C27.5309 18.1989 27.4074 18.3219 27.4074 18.4448C26.5432 21.0271 23.0864 22.2568 19.3827 21.396Z" fill="url(#paint13_linear_2_1584)"/>
<path d="M19.3827 21.396C15.679 20.5353 13.0864 17.83 13.4568 15.1248C14.321 12.6655 17.7778 11.3128 21.4815 12.1736C25.1852 13.0344 27.7778 15.7396 27.4074 18.4449C26.5432 21.0271 23.0864 22.2568 19.3827 21.396Z" fill="#FF9304"/>
<path d="M20.6173 8.73057C22.963 8.9765 19.1358 12.4195 17.1605 8.85353C17.037 8.85353 18.642 8.48463 20.6173 8.73057Z" fill="white"/>
<path opacity="0.5" d="M14.6914 22.6257C14.6914 22.6257 14.568 22.5027 14.3211 22.3797C13.8272 22.0108 12.7161 21.273 11.8519 20.2893C11.1112 19.5515 10.3705 18.4448 10.0001 17.2152C9.87663 16.8463 9.75317 16.3544 9.75317 15.9855C9.75317 15.8626 9.75317 15.7396 9.75317 15.7396C9.75317 15.6166 9.75317 15.3707 9.75317 15.2477C9.75317 15.2477 9.75317 15.2477 9.75317 15.1248C9.75317 15.1248 9.75317 15.1248 9.75317 15.0018C9.75317 14.7559 9.75317 14.5099 9.87663 14.387C9.87663 14.264 10.0001 14.0181 10.0001 13.8951C10.247 12.9114 10.6174 12.1736 11.1112 11.6817C11.9754 10.575 12.963 10.0832 13.21 9.96021C13.4569 9.83725 12.2223 10.575 11.2347 12.0506C10.8643 12.5425 10.4939 13.2803 10.3705 14.0181C10.3705 14.264 10.247 14.5099 10.247 14.7559C10.247 14.8788 10.247 14.8788 10.247 15.0018C10.247 15.8626 10.3705 16.7233 10.6174 17.4611C11.8519 20.4123 14.4445 22.3797 14.6914 22.6257Z" fill="white"/>
<path d="M16.1728 11.9277C16.1728 11.9277 11.7284 14.7559 14.4444 18.5678C14.4444 18.4449 11.1111 14.264 16.1728 11.9277Z" fill="#FFE016"/>
<path opacity="0.5" d="M23.9508 12.2966C22.7163 12.1736 26.2965 13.8951 26.6669 17.3382C27.0372 20.6582 21.4817 21.7649 21.4817 21.7649C21.4817 21.7649 26.6669 22.3797 27.6545 18.0759C28.3953 14.6329 23.9508 12.2966 23.9508 12.2966Z" fill="#D42F55"/>
<path opacity="0.8" d="M26.0496 26.0687C26.2965 25.9457 26.9138 25.6998 27.6545 25.085C28.5187 24.3472 29.5063 23.2405 30.1236 21.642C30.1236 21.642 30.1236 21.642 30.1236 21.519C30.2471 21.2731 30.2471 21.0271 30.3705 20.7812C30.3705 20.7812 30.3705 20.7812 30.3705 20.6582V20.5353C30.494 20.1664 30.6175 19.6745 30.6175 19.1826C30.6175 19.0597 30.6175 18.9367 30.6175 18.8137C30.8644 16.3544 30.0002 14.387 29.136 13.0344C28.3952 11.9277 27.531 11.1899 27.1607 10.9439C29.3829 12.4195 30.7409 14.5099 31.1113 16.6004C31.1113 16.7233 31.1113 16.8463 31.1113 16.9693V17.0922C31.1113 17.0922 31.1113 17.0922 31.1113 17.2152C31.1113 17.3382 31.1113 17.4611 31.1113 17.5841C31.1113 17.7071 31.1113 17.7071 31.1113 17.83C31.1113 18.1989 31.1113 18.5678 30.9878 18.8137C30.8644 19.1826 30.8644 19.4286 30.6175 19.7975L30.1236 21.396C29.8767 23.6094 28.2718 25.208 26.0496 26.0687Z" fill="#D42F55"/>
<path opacity="0.8" d="M11.358 22.6257C11.1111 22.3798 10.8642 22.1338 10.7408 21.8879C10.4938 21.519 10.2469 21.0271 10 20.6582C9.38273 19.4286 9.25928 18.1989 9.50619 16.9693L9.7531 15.3707C9.7531 15.0018 9.7531 14.6329 9.87656 14.264V14.1411C10.1235 13.4033 10.3704 12.7884 10.8642 12.1736C10.8642 12.0506 10.9877 12.0506 10.9877 11.9277C11.8519 10.821 12.8395 10.3291 13.0864 10.2062C13.7037 9.83726 14.4445 9.59133 15.1852 9.3454C15.0617 9.3454 12.8395 10.3291 11.2346 12.2966C10.7408 12.9114 10.3704 13.5262 10.1235 14.1411C9.87656 14.6329 9.7531 15.1248 9.7531 15.7396V15.8626C9.7531 15.9855 9.7531 16.1085 9.7531 16.3544C9.7531 16.3544 9.7531 16.3544 9.7531 16.4774C9.7531 16.8463 9.7531 17.2152 9.7531 17.4611C9.87656 20.1664 10.9877 22.1338 11.358 22.7487C11.2346 22.5027 11.358 22.6257 11.358 22.6257Z" fill="#D42F55"/>
<path d="M22.3458 33.3237C20.8644 32.9548 19.6298 32.4629 18.3952 31.8481C18.0249 31.6022 17.6545 31.3562 17.2841 31.1103C16.5434 30.6184 15.9261 30.0036 15.4323 29.5118C15.1853 29.2658 14.9384 29.0199 14.815 28.651C14.5681 28.2821 14.3211 27.9132 14.0742 27.4213C13.457 26.1917 13.3335 24.962 13.5804 23.7324V23.6094C13.5804 23.4864 13.5804 23.4864 13.7039 23.3635V23.2405V23.1175V22.9946C13.7039 22.9946 13.7039 22.9946 13.7039 22.8716C13.8273 22.5027 14.0742 22.1338 14.3212 21.7649C14.4446 21.519 14.6915 21.2731 14.815 21.1501C17.0372 18.6908 21.2347 17.5841 25.6792 18.6908C26.4199 18.8137 27.1607 19.0597 27.9014 19.4286C31.3582 20.7812 33.7039 23.2405 34.3211 25.9458C34.4446 26.5606 34.5681 27.1754 34.4446 27.7902C34.4446 27.7902 34.4446 27.7902 34.4446 27.9132C34.4446 28.1591 34.4446 28.4051 34.3211 28.651V28.774C33.8273 30.7414 32.2224 32.34 30.0002 33.2007H29.8767C27.9014 33.8156 25.1853 33.9385 22.3458 33.3237Z" fill="url(#paint14_linear_2_1584)"/>
<path d="M13.5803 23.9783V23.6094L13.8272 21.8879L13.9507 21.1501L14.0741 20.6582H14.3211L14.568 20.7812L14.9383 20.9041L27.1606 23.8553L34.4445 25.5768L34.9383 25.6998L35.3087 25.8228L35.0618 26.8065L34.4445 28.405H34.3211L34.0742 28.2821H33.9507L28.7655 27.1754L14.8149 24.2242L14.1976 24.1012H14.0741V23.9783H13.7038H13.5803Z" fill="url(#paint15_linear_2_1584)"/>
<path d="M22.8397 30.9873C21.3583 30.6184 20.0002 30.1266 18.7657 29.3888C18.7657 29.3888 18.6422 29.2658 18.3953 29.1428C18.2718 29.1428 18.2718 29.0199 18.1484 29.0199C17.2842 28.405 16.5434 27.7902 15.9262 27.1754C15.8027 27.0524 15.8027 26.9295 15.6792 26.9295C14.9385 26.0687 14.4447 25.085 14.0743 24.2242C13.9508 23.7324 13.8274 23.3635 13.8274 22.8716C13.8274 22.7486 13.8274 22.6257 13.8274 22.5027C13.8274 22.3797 13.8274 22.2568 13.8274 22.1338C13.8274 21.7649 13.8274 21.396 13.9508 21.0271V20.9041C14.1978 20.1663 14.4447 19.5515 14.9385 18.9367C14.9385 18.8137 15.062 18.8137 15.062 18.6908C15.5558 18.0759 16.2965 17.4611 17.1607 16.9692C17.778 16.6003 18.5188 16.3544 19.2595 16.1085C21.3583 15.4937 23.8274 15.3707 26.2965 15.9855C28.1484 16.3544 29.7533 17.2152 31.2348 18.0759C31.2348 18.0759 31.2348 18.0759 31.3583 18.1989C33.5805 19.6745 34.9385 21.7649 35.3089 23.8553C35.3089 23.9783 35.3089 24.1013 35.3089 24.2242C35.3089 24.3472 35.3089 24.3472 35.3089 24.4701C35.3089 24.5931 35.3089 24.7161 35.3089 24.839C35.3089 24.962 35.3089 24.962 35.3089 25.085C35.3089 25.4539 35.3089 25.8228 35.1854 26.0687C35.062 26.4376 35.062 26.6835 34.815 27.0524C34.6916 27.2984 34.5681 27.5443 34.4447 27.7902C34.4447 27.9132 34.3212 27.9132 34.3212 28.0361C34.1978 28.1591 34.0743 28.405 33.9508 28.528C31.8521 30.8644 27.4076 32.094 22.8397 30.9873Z" fill="url(#paint16_linear_2_1584)"/>
<path opacity="0.5" d="M22.2223 15.4937C21.4815 15.6166 23.0865 21.519 23.3334 23.9783C23.5803 26.5606 21.8519 30.0036 22.0988 30.4955C22.3457 30.8644 27.1606 31.6022 29.7531 30.7414C32.3457 29.8806 30.0001 29.3888 29.1359 27.7902C28.2717 26.1917 27.6544 20.0434 28.1482 18.8137C28.642 17.5841 29.2593 17.4611 29.3828 16.9692C29.3828 16.4774 25.8025 14.6329 22.2223 15.4937Z" fill="white"/>
<path d="M23.5805 28.2821C19.8768 27.4213 17.2842 24.7161 17.6546 22.0108C17.6546 21.8879 17.6546 21.7649 17.778 21.6419C18.3953 18.9367 22.099 17.4611 25.9262 18.3219C29.7533 19.1826 32.4694 22.1338 31.7286 24.962C31.7286 25.085 31.6052 25.2079 31.6052 25.3309C30.741 27.7902 27.1607 29.1428 23.5805 28.2821Z" fill="url(#paint17_linear_2_1584)"/>
<path d="M23.5805 28.2821C19.8768 27.4213 17.2842 24.7161 17.6546 22.0108C18.5188 19.5515 21.9756 18.1989 25.6793 19.0597C29.383 19.9204 31.9756 22.6257 31.6052 25.3309C30.741 27.7902 27.1607 29.1428 23.5805 28.2821Z" fill="#FF9304"/>
<path d="M24.6914 15.4937C27.0371 15.7396 23.2099 19.1826 21.2346 15.6166C21.2346 15.6166 22.8396 15.3707 24.6914 15.4937Z" fill="white"/>
<path opacity="0.5" d="M18.889 29.3888C18.889 29.3888 18.7655 29.2658 18.5186 29.1428C18.0248 28.7739 16.9136 28.0361 16.0494 27.0524C15.3087 26.1917 14.568 25.2079 14.1976 23.9783C14.0741 23.6094 13.9507 23.1175 13.9507 22.7486C13.9507 22.6257 13.9507 22.5027 13.9507 22.5027C13.9507 22.3797 13.9507 22.1338 13.9507 22.0108C13.9507 22.0108 13.9507 22.0108 13.9507 21.8879C13.9507 21.8879 13.9507 21.8879 13.9507 21.7649C13.9507 21.519 13.9507 21.273 14.0741 21.1501C14.0741 21.0271 14.1976 20.7812 14.1976 20.6582C14.4445 19.7974 14.8149 19.0596 15.3087 18.4448C16.1729 17.3381 17.1606 16.8463 17.4075 16.7233C17.6544 16.6003 16.4198 17.3381 15.5556 18.8137C15.1853 19.3056 14.8149 20.0434 14.6914 20.7812C14.6914 21.0271 14.568 21.273 14.568 21.519C14.568 21.6419 14.568 21.6419 14.568 21.7649C14.568 22.6257 14.6914 23.4864 14.9383 24.2242C15.926 27.1754 18.642 29.2658 18.889 29.3888Z" fill="white"/>
<path d="M20.3706 18.6908C20.3706 18.6908 15.9261 21.519 18.6422 25.3309C18.6422 25.3309 15.1854 21.0271 20.3706 18.6908Z" fill="#FFE016"/>
<path opacity="0.5" d="M28.0248 19.0597C26.7902 18.9367 30.3705 20.6582 30.7408 24.1012C31.1112 27.4213 25.5557 28.528 25.5557 28.528C25.5557 28.528 30.7408 29.1428 31.7285 24.839C32.5927 21.396 28.0248 19.0597 28.0248 19.0597Z" fill="#D42F55"/>
<path opacity="0.8" d="M30.2471 32.8318C30.494 32.7088 31.1113 32.4629 31.852 31.8481C32.7162 31.1103 33.7039 30.0036 34.3211 28.405C34.3211 28.405 34.3211 28.405 34.3211 28.2821C34.4446 28.0361 34.4446 27.7902 34.5681 27.5443C34.5681 27.5443 34.5681 27.5443 34.5681 27.4213V27.2984C34.6915 26.9295 34.815 26.4376 34.815 25.9457C34.815 25.8228 34.815 25.6998 34.815 25.5768C35.0619 23.1175 34.1977 21.1501 33.3335 19.7974C32.5927 18.6908 31.7286 17.953 31.3582 17.707C33.5804 19.1826 34.9384 21.273 35.3088 23.3635C35.3088 23.4864 35.3088 23.6094 35.3088 23.7323V23.8553C35.3088 23.8553 35.3088 23.8553 35.3088 23.9783C35.3088 24.1012 35.3088 24.2242 35.3088 24.3472C35.3088 24.4701 35.3088 24.4701 35.3088 24.5931C35.3088 24.962 35.3088 25.3309 35.1853 25.5768C35.0619 25.9457 35.0619 26.1917 34.815 26.5606L34.3211 28.1591C33.9508 30.3725 32.3458 31.971 30.2471 32.8318Z" fill="#D42F55"/>
<path opacity="0.8" d="M15.4323 29.3888C15.1853 29.1429 14.9384 28.8969 14.815 28.528C14.5681 28.1591 14.3211 27.6673 14.0742 27.2984C13.457 26.0687 13.3335 24.8391 13.5804 23.6094L13.8273 22.0109C13.8273 21.642 13.8273 21.2731 13.9508 20.9042V20.7812C14.1977 20.0434 14.4446 19.4286 14.9384 18.8137C14.9384 18.6908 15.0619 18.6908 15.0619 18.5678C15.9261 17.4611 16.9137 16.9693 17.1607 16.8463C17.7779 16.4774 18.5187 16.2315 19.2594 15.9855C19.136 15.9855 16.9137 16.9693 15.3088 18.9367C14.815 19.5515 14.4446 20.1664 14.1977 20.7812C13.9508 21.2731 13.8273 21.7649 13.8273 22.3797V22.5027C13.8273 22.6257 13.8273 22.7486 13.8273 22.9946C13.8273 22.9946 13.8273 22.9946 13.8273 23.1175C13.8273 23.4864 13.8273 23.8553 13.8273 24.1013C13.9508 26.8065 15.0619 28.774 15.4323 29.3888Z" fill="#D42F55"/>
<path d="M40.3707 28.7739C38.8892 29.1428 37.5312 29.2658 36.1731 29.1428C35.8028 29.1428 35.3089 29.1428 34.9386 29.0199C34.0744 28.8969 33.3336 28.651 32.4694 28.405C32.0991 28.2821 31.8521 28.1591 31.4818 28.0361C31.1114 27.7902 30.6176 27.5443 30.3707 27.2983C29.2595 26.4376 28.5188 25.4539 28.1484 24.2242V24.1012C28.1484 23.9783 28.1484 23.9783 28.1484 23.8553V23.7323V23.6094V23.4864C28.1484 23.4864 28.1484 23.4864 28.1484 23.3634C28.1484 22.9945 28.1484 22.5027 28.1484 22.1338C28.1484 21.8879 28.2719 21.519 28.2719 21.273C29.1361 18.0759 32.346 15.2477 36.7904 14.141C37.5312 13.8951 38.2719 13.7721 39.0126 13.7721C42.7163 13.4032 45.9262 14.5099 47.7781 16.6003C48.1484 17.0922 48.5188 17.5841 48.7657 18.0759C48.8892 18.3219 48.8892 18.5678 49.0126 18.8137V18.9367C49.5065 20.9041 48.7657 23.1175 47.2842 24.839C47.2842 24.839 47.2842 24.839 47.1608 24.962C45.5558 26.6835 43.2102 28.0361 40.3707 28.7739Z" fill="url(#paint18_linear_2_1584)"/>
<path d="M28.2718 24.3472L28.1483 24.1013L27.6545 22.5027H27.531L27.4076 21.7649H27.2841L27.1606 21.273L27.4076 21.1501H27.6545L28.1483 21.0271L40.2471 18.0759L47.6545 16.3544L48.1483 16.2315L48.5187 16.1085L48.6421 17.0922L48.889 18.8137L48.7656 18.9367H48.5187H48.3952L43.3335 20.4123L29.5063 23.9783L28.889 24.2242H28.7656L28.5187 24.3472H28.2718Z" fill="url(#paint19_linear_2_1584)"/>
<path d="M39.7533 26.4376C38.2718 26.8065 36.7903 26.9295 35.4323 26.8065C35.4323 26.8065 35.1854 26.8065 35.0619 26.8065C34.9385 26.8065 34.815 26.8065 34.6916 26.8065C33.7039 26.6835 32.7163 26.4376 31.8521 26.1917C31.7286 26.1917 31.6052 26.0687 31.4817 26.0687C30.494 25.5768 29.5064 25.085 28.7656 24.3472C28.3953 23.9783 28.1484 23.6094 27.9014 23.2405C27.778 23.1175 27.778 22.9946 27.6545 22.8716C27.6545 22.7486 27.5311 22.6257 27.5311 22.6257C27.4076 22.2568 27.2842 21.8879 27.1607 21.6419V21.519C27.0373 20.7812 27.0373 20.0434 27.1607 19.3056C27.1607 19.1826 27.1607 19.0597 27.1607 19.0597C27.4076 18.1989 27.6545 17.4611 28.2718 16.6004C28.6422 15.9855 29.136 15.3707 29.7533 14.8788C31.3582 13.4032 33.457 12.1736 36.0496 11.5588C37.9014 11.0669 39.7533 11.0669 41.3582 11.1899H41.4817C44.0743 11.5588 46.2965 12.7884 47.6545 14.5099C47.778 14.6329 47.778 14.7559 47.9014 14.8788L48.0249 15.0018C48.0249 15.1248 48.1484 15.2477 48.1484 15.3707C48.1484 15.3707 48.1484 15.4937 48.2718 15.4937C48.3953 15.8626 48.5187 16.1085 48.6422 16.4774C48.7656 16.8463 48.7656 17.0922 48.7656 17.4611C48.7656 17.707 48.7656 18.0759 48.7656 18.3219C48.7656 18.4448 48.7656 18.5678 48.7656 18.6908C48.7656 18.9367 48.6422 19.0597 48.6422 19.3056C47.778 22.2568 44.3212 25.3309 39.7533 26.4376Z" fill="url(#paint20_linear_2_1584)"/>
<path opacity="0.5" d="M32.0991 12.9114C31.4818 13.4032 35.5558 17.83 37.0373 20.0434C38.3954 22.2568 38.5188 26.0687 38.8892 26.3146C39.2595 26.5606 43.9509 24.962 45.9262 23.1175C47.9015 21.1501 45.4324 21.8879 43.9509 20.7812C42.4694 19.6745 39.1361 14.5099 38.8892 13.2803C38.7657 12.0506 39.2596 11.4358 39.1361 11.0669C38.8892 10.575 34.9386 10.575 32.0991 12.9114Z" fill="white"/>
<path d="M39.136 23.7324C35.4322 24.5931 31.9755 23.3635 30.9878 20.9041C30.9878 20.7812 30.8643 20.6582 30.8643 20.5352C30.1236 17.83 32.7162 14.7559 36.6668 13.8951C40.494 12.9114 44.1977 14.387 44.9384 17.0922C44.9384 17.2152 44.9384 17.3381 45.0619 17.4611C45.3088 20.0434 42.7162 22.7486 39.136 23.7324Z" fill="url(#paint21_linear_2_1584)"/>
<path d="M39.136 23.7324C35.4323 24.5931 31.9755 23.3635 30.9879 20.9041C30.6175 18.3219 33.0866 15.4937 36.7903 14.6329C40.494 13.7721 43.9508 15.0018 44.9385 17.4611C45.3089 20.0434 42.7163 22.7486 39.136 23.7324Z" fill="#FF9304"/>
<path d="M34.3213 11.8047C36.5435 10.9439 34.6917 15.7396 31.2349 13.5262C31.2349 13.5262 32.5929 12.5425 34.3213 11.8047Z" fill="white"/>
<path opacity="0.5" d="M35.4323 26.8065C35.4323 26.8065 35.1854 26.8065 35.0619 26.8065C34.4446 26.8065 33.2101 26.5606 31.8521 26.0687C30.7409 25.6998 29.6298 25.085 28.7656 24.2242C28.5187 23.9783 28.1484 23.6094 28.0249 23.2405C28.0249 23.1175 27.9014 23.1175 27.9014 22.9946C27.778 22.8716 27.778 22.7486 27.6545 22.6257C27.6545 22.6257 27.6545 22.6257 27.6545 22.5027C27.5311 22.2568 27.5311 22.0108 27.4076 21.8879C27.4076 21.7649 27.2842 21.519 27.2842 21.396C27.0372 20.4123 27.1607 19.6745 27.2842 18.9367C27.5311 17.5841 28.2718 16.6003 28.3953 16.4774C28.5187 16.2314 27.9014 17.4611 27.6545 19.1826C27.5311 19.7975 27.6545 20.5352 27.778 21.273C27.9014 21.519 27.9014 21.7649 28.0249 22.0108C28.0249 22.1338 28.0249 22.1338 28.1484 22.2568C28.5187 22.9946 29.0126 23.7324 29.6298 24.2242C31.8521 26.1917 35.1854 26.8065 35.4323 26.8065Z" fill="white"/>
<path d="M31.8522 16.6003C31.8522 16.6003 29.2596 21.1501 33.3336 23.2405C33.3336 23.2405 28.3954 21.1501 31.8522 16.6003Z" fill="#FFE016"/>
<path opacity="0.5" d="M38.8891 13.4032C37.7779 13.8951 41.7286 13.7721 43.7039 16.6003C45.6792 19.4285 41.1113 22.9946 41.1113 22.9946C41.1113 22.9946 45.9261 21.1501 44.9384 16.8463C43.9508 13.5262 38.8891 13.4032 38.8891 13.4032Z" fill="#D42F55"/>
<path opacity="0.8" d="M47.1607 24.7161C47.2842 24.4702 47.778 23.9783 48.1484 23.1175C48.6422 22.1338 49.0126 20.6582 48.7656 18.9367C48.7656 18.9367 48.7656 18.9367 48.7656 18.8137C48.7656 18.5678 48.6422 18.3219 48.6422 17.953C48.6422 17.953 48.6422 17.953 48.6422 17.83V17.707C48.5187 17.3381 48.3953 16.8463 48.2718 16.3544C48.2718 16.2315 48.1484 16.1085 48.1484 16.1085C47.2842 13.7721 45.5558 12.4195 44.1977 11.6817C42.9632 11.0669 41.9755 10.821 41.4817 10.698C44.0743 11.0669 46.2965 12.2966 47.6545 14.0181C47.778 14.141 47.778 14.264 47.9014 14.387C47.9014 14.387 47.9014 14.5099 48.0249 14.5099C48.0249 14.6329 48.1484 14.7559 48.1484 14.8788C48.1484 14.8788 48.1484 15.0018 48.2718 15.0018C48.3953 15.3707 48.5187 15.6166 48.6422 15.9855C48.7656 16.3544 48.7656 16.6003 48.7656 16.9692L49.0126 18.6908C49.3829 20.9041 48.6422 22.9946 47.1607 24.7161Z" fill="#D42F55"/>
<path opacity="0.8" d="M32.4694 28.4051C32.0991 28.2821 31.8521 28.1591 31.4818 28.0362C30.9879 27.7902 30.6176 27.5443 30.3707 27.2984C29.2596 26.4376 28.5188 25.4539 28.1484 24.2242L27.6546 22.6257C27.5312 22.2568 27.4077 21.8879 27.2842 21.642V21.519C27.1608 20.7812 27.1608 20.0434 27.2842 19.3056C27.2842 19.1826 27.2842 19.0597 27.2842 19.0597C27.5312 17.7071 28.2719 16.7233 28.3954 16.6004C28.7657 15.9855 29.2596 15.3707 29.8768 14.8788C29.7534 15.0018 28.2719 16.8463 27.7781 19.3056C27.6546 20.0434 27.5312 20.7812 27.6546 21.519C27.6546 22.0109 27.7781 22.6257 28.025 23.1175V23.2405C28.025 23.3635 28.1484 23.4864 28.1484 23.6094C28.1484 23.6094 28.1484 23.6094 28.1484 23.7324C28.2719 24.1013 28.3954 24.3472 28.6423 24.5931C30.0003 27.0524 31.8521 28.1591 32.4694 28.528C32.346 28.4051 32.4694 28.4051 32.4694 28.4051Z" fill="#D42F55"/>
<path d="M38.0247 25.8228C36.6667 25.3309 35.3087 24.7161 34.1975 23.9783C33.8272 23.7324 33.4568 23.4864 33.2099 23.2405C32.5926 22.7487 31.9753 22.1338 31.4815 21.396C31.2346 21.1501 31.1111 20.7812 30.8642 20.5353C30.6173 20.1664 30.3704 19.6745 30.2469 19.3056C29.7531 18.076 29.6296 16.7233 30 15.4937V15.3707C30 15.2478 30 15.2478 30.1235 15.1248V15.0018V14.8789V14.7559C30.1235 14.7559 30.1235 14.7559 30.1235 14.6329C30.2469 14.264 30.4938 13.8951 30.8642 13.5262C30.9877 13.2803 31.2346 13.1573 31.4815 12.9114C33.9506 10.5751 38.2716 9.83726 42.5926 11.1899C43.3334 11.4358 44.0741 11.6817 44.6914 12.0506C48.0247 13.6492 50.2469 16.3544 50.6173 19.0597C50.7408 19.6745 50.7408 20.2893 50.6173 20.9042C50.6173 20.9042 50.6173 20.9042 50.6173 21.0271C50.6173 21.2731 50.4938 21.519 50.4938 21.7649V21.8879C49.8766 23.8553 48.1482 25.3309 45.9259 25.9458H45.8025C43.4568 26.6836 40.7408 26.6836 38.0247 25.8228Z" fill="url(#paint22_linear_2_1584)"/>
<path d="M30 15.7396V15.4937V15.3707L30.3704 13.7721L30.6173 13.0343L30.7407 12.5425H30.8642L31.2346 12.6654L31.6049 12.7884L43.5802 16.7233L50.7407 19.0597L51.2346 19.1826L51.4815 19.3056H51.6049L51.1111 20.1664L50.4938 21.7649H50.3704H50.2469H50.1235L50 21.6419L44.9383 20.1664L31.2346 16.1085L30.4938 15.9855V15.8626H30.1235L30 15.7396Z" fill="url(#paint23_linear_2_1584)"/>
<path d="M38.7655 23.4864C37.284 22.9946 36.0494 22.3797 34.9383 21.6419C34.9383 21.6419 34.8149 21.519 34.568 21.396C34.4445 21.396 34.4445 21.2731 34.3211 21.1501C33.4569 20.5353 32.8396 19.7975 32.2223 19.0597C32.0988 18.9367 32.0988 18.8137 31.9754 18.6908C31.3581 17.83 30.8643 16.8463 30.6174 15.8626C30.4939 15.3707 30.4939 14.8788 30.4939 14.5099C30.4939 14.387 30.4939 14.264 30.4939 14.141C30.4939 14.0181 30.4939 13.8951 30.4939 13.7721C30.4939 13.4032 30.6174 13.0344 30.7408 12.6655V12.5425C30.9877 11.8047 31.3581 11.1899 31.8519 10.698C31.9754 10.575 31.9754 10.575 32.0988 10.4521C32.7161 9.83724 33.4569 9.34538 34.3211 8.97648C34.9383 8.60759 35.6791 8.48462 36.4198 8.23869C38.5186 7.74683 40.9877 7.86979 43.4569 8.60759C45.3087 9.09945 46.9136 9.96021 48.1482 11.0669C48.1482 11.0669 48.1482 11.0669 48.2717 11.1899C50.3704 12.9114 51.605 15.0018 51.7285 17.2152C51.7285 17.3381 51.7285 17.4611 51.7285 17.5841C51.7285 17.707 51.7285 17.707 51.7285 17.83C51.7285 17.953 51.7285 18.0759 51.7285 18.1989C51.7285 18.3219 51.7285 18.3219 51.7285 18.4448C51.7285 18.8137 51.605 19.1826 51.4816 19.4286C51.3581 19.7975 51.2346 20.0434 51.1112 20.4123C50.9877 20.6582 50.8643 20.9042 50.6174 21.1501C50.4939 21.2731 50.4939 21.273 50.3704 21.396C50.247 21.519 50.1235 21.7649 50.0001 21.8879C47.6544 24.1013 43.2099 24.962 38.7655 23.4864Z" fill="url(#paint24_linear_2_1584)"/>
<path opacity="0.5" d="M39.2592 7.99276C38.5184 8.11573 39.6296 14.0181 39.753 16.6004C39.8765 19.1826 37.7777 22.5027 38.0246 22.9946C38.2715 23.3635 43.0863 24.4702 45.6789 23.8553C48.2715 23.2405 45.9258 22.5027 45.3086 20.7812C44.6913 19.0597 44.4444 12.9114 44.9382 11.8047C45.432 10.698 46.1728 10.4521 46.2962 10.0832C46.2962 9.59132 42.9629 7.37794 39.2592 7.99276Z" fill="white"/>
<path d="M39.6297 20.7812C36.0494 19.6745 33.7038 16.7233 34.1976 14.1411C34.1976 14.0181 34.1976 13.8951 34.321 13.7722C35.0618 11.0669 38.8889 9.83726 42.7161 11.0669C46.5433 12.2966 48.8889 15.3707 48.0247 18.076C48.0247 18.1989 47.9013 18.3219 47.9013 18.4449C46.7902 20.9042 43.2099 21.8879 39.6297 20.7812Z" fill="url(#paint25_linear_2_1584)"/>
<path d="M39.6297 20.7812C36.0494 19.6745 33.7038 16.7233 34.1976 14.141C35.3087 11.6817 38.8889 10.698 42.4692 11.8047C46.0494 12.9114 48.3951 15.8626 47.9013 18.4448C46.7902 20.9042 43.2099 21.8879 39.6297 20.7812Z" fill="#FF9304"/>
<path d="M41.7285 8.23869C44.0742 8.60759 40.0001 11.6817 38.2717 7.99276C38.2717 7.99276 39.8767 7.86979 41.7285 8.23869Z" fill="white"/>
<path opacity="0.5" d="M34.8148 21.642C34.8148 21.642 34.6913 21.519 34.4444 21.396C33.9506 21.0271 32.963 20.2893 32.0988 19.1826C31.358 18.3219 30.7407 17.2152 30.4938 15.9855C30.3704 15.6166 30.3704 15.1248 30.3704 14.6329C30.3704 14.5099 30.3704 14.387 30.3704 14.387C30.3704 14.264 30.3704 14.0181 30.3704 13.8951C30.3704 13.8951 30.3704 13.8951 30.3704 13.7722C30.3704 13.7722 30.3704 13.7722 30.3704 13.6492C30.3704 13.4033 30.4938 13.1573 30.4938 13.0344C30.4938 12.9114 30.6173 12.6655 30.6173 12.5425C30.9876 11.6817 31.358 10.9439 31.8518 10.4521C32.8395 9.46835 33.8272 8.97649 34.0741 8.97649C34.321 8.85353 33.0864 9.59132 31.9753 10.9439C31.6049 11.4358 31.2346 12.0506 30.9876 12.7884C30.8642 13.0344 30.8642 13.2803 30.8642 13.5262C30.8642 13.6492 30.8642 13.6492 30.8642 13.7722C30.7407 14.6329 30.8642 15.4937 31.1111 16.2315C32.0988 19.1826 34.5679 21.396 34.8148 21.642Z" fill="white"/>
<path d="M37.1605 11.0669C37.1605 11.0669 32.5926 13.6492 34.9383 17.4611C34.9383 17.4611 31.8519 13.0343 37.1605 11.0669Z" fill="#FFE016"/>
<path opacity="0.5" d="M44.8149 11.9277C43.5803 11.6817 47.0371 13.7721 47.1605 17.0922C47.284 20.4123 41.605 21.1501 41.605 21.1501C41.605 21.1501 46.6667 22.1338 48.0247 17.953C49.1358 14.7559 44.8149 11.9277 44.8149 11.9277Z" fill="#D42F55"/>
<path opacity="0.8" d="M45.926 25.9457C46.1729 25.8228 46.9137 25.5768 47.6544 25.085C48.5186 24.4701 49.6297 23.3635 50.3705 21.8879C50.3705 21.8879 50.3705 21.8879 50.3705 21.7649C50.4939 21.519 50.6174 21.273 50.7408 21.0271C50.7408 21.0271 50.7408 21.0271 50.7408 20.9041V20.7812C50.8643 20.4123 50.9878 19.9204 51.1112 19.4286C51.1112 19.3056 51.1112 19.1826 51.1112 19.0597C51.605 16.6003 50.8643 14.6329 50.0001 13.1573C49.3828 12.1736 48.6421 11.4358 48.2717 11.0669C50.3705 12.7884 51.605 14.8788 51.7285 17.0922C51.7285 17.2152 51.7285 17.3381 51.7285 17.4611V17.5841C51.7285 17.5841 51.7285 17.5841 51.7285 17.707C51.7285 17.83 51.7285 17.953 51.7285 18.0759C51.7285 18.1989 51.7285 18.1989 51.7285 18.3219C51.7285 18.6908 51.605 19.0597 51.4816 19.3056C51.3581 19.6745 51.2347 19.9204 51.1112 20.2893L50.4939 21.8879C49.8766 23.7324 48.1482 25.2079 45.926 25.9457Z" fill="#D42F55"/>
<path opacity="0.8" d="M31.4815 21.396C31.2346 21.1501 31.1111 20.7812 30.8642 20.5353C30.6173 20.0434 30.3704 19.6745 30.2469 19.3056C29.7531 18.0759 29.6296 16.7233 30 15.4937L30.3704 13.8951C30.3704 13.5262 30.4938 13.1573 30.6173 12.7884V12.6655C30.8642 11.9277 31.2346 11.3128 31.7284 10.821C31.8519 10.698 31.8519 10.698 31.9753 10.575C32.963 9.59132 33.9506 9.09946 34.1975 9.09946C34.8148 8.73056 35.5556 8.6076 36.2963 8.36166C36.1729 8.36166 33.8272 9.22242 32.0988 11.0669C31.605 11.5588 31.1111 12.1736 30.7408 12.9114C30.4938 13.4033 30.3704 13.8951 30.2469 14.5099V14.6329C30.2469 14.7559 30.2469 14.8788 30.1235 15.1248C30.1235 15.1248 30.1235 15.1248 30.1235 15.2477C30.1235 15.6166 30 15.9855 30 16.2315C29.8766 18.9367 30.8642 21.0271 31.2346 21.642C31.358 21.2731 31.4815 21.396 31.4815 21.396Z" fill="#D42F55"/>
<path d="M42.9631 23.9783C40.9877 23.7324 45.4322 20.6582 47.284 20.5353C49.1359 20.4123 48.7655 21.8879 48.3952 22.5027C48.0248 23.1175 45.0618 24.2242 42.9631 23.9783Z" fill="white"/>
<path opacity="0.5" d="M29.8765 17.953C29.8765 17.953 33.0864 21.273 38.1482 23.4864C43.3333 25.6998 46.1728 25.8228 46.1728 25.8228C46.1728 25.8228 43.7037 30.3725 38.8889 30.8644C34.0741 31.3562 33.9506 29.0199 33.9506 29.0199C33.9506 29.0199 25.0617 30.7414 21.1111 25.3309C17.1605 19.9204 30.2469 14.264 30.2469 14.264C30.2469 14.264 29.5062 16.6004 29.8765 17.953Z" fill="#D40C55"/>
<path opacity="0.5" d="M18.6419 46.1121C16.6666 44.7595 15.0616 49.3092 17.0369 50.6618C19.0122 52.0145 20.6172 47.5877 18.6419 46.1121Z" fill="#FFE0B3"/>
<path opacity="0.5" d="M33.8271 36.0289C31.4815 32.217 40.1234 33.2007 46.2963 30.4955C52.4691 27.7902 46.2963 36.0289 33.8271 36.0289Z" fill="#FFE0B3"/>
<path opacity="0.5" d="M53.3333 18.9367C52.4691 19.0597 53.2098 22.0108 52.3456 24.7161C51.4814 27.4213 56.9135 25.4539 56.9135 22.8716C56.7901 20.2893 53.3333 18.9367 53.3333 18.9367Z" fill="#FFE0B3"/>
</g>
<defs>
<radialGradient id="paint0_radial_2_1584" cx="0" cy="0" r="1" gradientUnits="userSpaceOnUse" gradientTransform="translate(31.2138 50.925) scale(29.2194 29.1031)">
<stop stop-color="#CE5411"/>
<stop offset="1" stop-color="#B42B00"/>
</radialGradient>
<linearGradient id="paint1_linear_2_1584" x1="28.3402" y1="53.9102" x2="39.7104" y2="53.9102" gradientUnits="userSpaceOnUse">
<stop stop-color="#FF9600"/>
<stop offset="1" stop-color="#FFA900"/>
</linearGradient>
<linearGradient id="paint2_linear_2_1584" x1="48.2319" y1="56.683" x2="68.666" y2="63.1587" gradientUnits="userSpaceOnUse">
<stop offset="0.0502793" stop-color="#FF3F00"/>
<stop offset="1" stop-color="#FF6A03"/>
</linearGradient>
<linearGradient id="paint3_linear_2_1584" x1="48.3456" y1="55.5219" x2="69.2417" y2="62.144" gradientUnits="userSpaceOnUse">
<stop offset="0.0502793" stop-color="#FF3F00"/>
<stop offset="1" stop-color="#FF6A03"/>
</linearGradient>
<linearGradient id="paint4_linear_2_1584" x1="48.7833" y1="54.1414" x2="69.6792" y2="60.7635" gradientUnits="userSpaceOnUse">
<stop stop-color="#FFA900"/>
<stop offset="1" stop-color="#FFC600"/>
</linearGradient>
<linearGradient id="paint5_linear_2_1584" x1="52.3816" y1="55.1985" x2="66.129" y2="59.5551" gradientUnits="userSpaceOnUse">
<stop stop-color="#FF7C04"/>
<stop offset="1" stop-color="#D92000"/>
</linearGradient>
<linearGradient id="paint6_linear_2_1584" x1="28.0995" y1="28.1028" x2="48.8952" y2="22.8933" gradientUnits="userSpaceOnUse">
<stop offset="0.0502793" stop-color="#FF3F00"/>
<stop offset="1" stop-color="#FF6A03"/>
</linearGradient>
<linearGradient id="paint7_linear_2_1584" x1="27.5868" y1="27.0539" x2="48.8529" y2="21.7266" gradientUnits="userSpaceOnUse">
<stop offset="0.0502793" stop-color="#FF3F00"/>
<stop offset="1" stop-color="#FF6A03"/>
</linearGradient>
<linearGradient id="paint8_linear_2_1584" x1="27.235" y1="25.6493" x2="48.5011" y2="20.322" gradientUnits="userSpaceOnUse">
<stop stop-color="#FFA900"/>
<stop offset="1" stop-color="#FF9600"/>
</linearGradient>
<linearGradient id="paint9_linear_2_1584" x1="30.8571" y1="24.6763" x2="44.8479" y2="21.1715" gradientUnits="userSpaceOnUse">
<stop stop-color="#FF7C04"/>
<stop offset="1" stop-color="#D92000"/>
</linearGradient>
<linearGradient id="paint10_linear_2_1584" x1="9.50114" y1="16.6377" x2="30.3747" y2="21.5294" gradientUnits="userSpaceOnUse">
<stop offset="0.0502793" stop-color="#FF3F00"/>
<stop offset="1" stop-color="#FF6A03"/>
</linearGradient>
<linearGradient id="paint11_linear_2_1584" x1="9.5254" y1="15.4721" x2="30.8708" y2="20.4743" gradientUnits="userSpaceOnUse">
<stop offset="0.0502793" stop-color="#FF3F00"/>
<stop offset="1" stop-color="#FF6A03"/>
</linearGradient>
<linearGradient id="paint12_linear_2_1584" x1="9.85593" y1="14.0616" x2="31.2013" y2="19.0639" gradientUnits="userSpaceOnUse">
<stop stop-color="#FFA900"/>
<stop offset="1" stop-color="#FF9600"/>
</linearGradient>
<linearGradient id="paint13_linear_2_1584" x1="13.5247" y1="14.8418" x2="27.5677" y2="18.1328" gradientUnits="userSpaceOnUse">
<stop stop-color="#FF7C04"/>
<stop offset="1" stop-color="#D92000"/>
</linearGradient>
<linearGradient id="paint14_linear_2_1584" x1="13.6334" y1="23.424" x2="34.5069" y2="28.3157" gradientUnits="userSpaceOnUse">
<stop offset="0.0502793" stop-color="#FF3F00"/>
<stop offset="1" stop-color="#FF6A03"/>
</linearGradient>
<linearGradient id="paint15_linear_2_1584" x1="13.6575" y1="22.2583" x2="35.0029" y2="27.2606" gradientUnits="userSpaceOnUse">
<stop offset="0.0502793" stop-color="#FF3F00"/>
<stop offset="1" stop-color="#FF6A03"/>
</linearGradient>
<linearGradient id="paint16_linear_2_1584" x1="13.9882" y1="20.848" x2="35.3336" y2="25.8503" gradientUnits="userSpaceOnUse">
<stop stop-color="#FFA900"/>
<stop offset="1" stop-color="#FF9600"/>
</linearGradient>
<linearGradient id="paint17_linear_2_1584" x1="17.657" y1="21.6282" x2="31.7001" y2="24.9192" gradientUnits="userSpaceOnUse">
<stop stop-color="#FF7C04"/>
<stop offset="1" stop-color="#D92000"/>
</linearGradient>
<linearGradient id="paint18_linear_2_1584" x1="28.0911" y1="23.8978" x2="48.8869" y2="18.6883" gradientUnits="userSpaceOnUse">
<stop offset="0.0502793" stop-color="#FF3F00"/>
<stop offset="1" stop-color="#FF6A03"/>
</linearGradient>
<linearGradient id="paint19_linear_2_1584" x1="27.5783" y1="22.8488" x2="48.8443" y2="17.5215" gradientUnits="userSpaceOnUse">
<stop offset="0.0502793" stop-color="#FF3F00"/>
<stop offset="1" stop-color="#FF6A03"/>
</linearGradient>
<linearGradient id="paint20_linear_2_1584" x1="27.2266" y1="21.4442" x2="48.4925" y2="16.117" gradientUnits="userSpaceOnUse">
<stop stop-color="#FFA900"/>
<stop offset="1" stop-color="#FF9600"/>
</linearGradient>
<linearGradient id="paint21_linear_2_1584" x1="30.8487" y1="20.4712" x2="44.8393" y2="16.9664" gradientUnits="userSpaceOnUse">
<stop stop-color="#FF7C04"/>
<stop offset="1" stop-color="#D92000"/>
</linearGradient>
<linearGradient id="paint22_linear_2_1584" x1="30.0876" y1="15.2629" x2="50.5217" y2="21.7386" gradientUnits="userSpaceOnUse">
<stop offset="0.0502793" stop-color="#FF3F00"/>
<stop offset="1" stop-color="#FF6A03"/>
</linearGradient>
<linearGradient id="paint23_linear_2_1584" x1="30.2014" y1="14.1018" x2="51.0975" y2="20.7239" gradientUnits="userSpaceOnUse">
<stop offset="0.0502793" stop-color="#FF3F00"/>
<stop offset="1" stop-color="#FF6A03"/>
</linearGradient>
<linearGradient id="paint24_linear_2_1584" x1="30.639" y1="12.7213" x2="51.5351" y2="19.3434" gradientUnits="userSpaceOnUse">
<stop stop-color="#FFA900"/>
<stop offset="1" stop-color="#FFC600"/>
</linearGradient>
<linearGradient id="paint25_linear_2_1584" x1="34.2372" y1="13.7783" x2="47.9847" y2="18.135" gradientUnits="userSpaceOnUse">
<stop stop-color="#FF7C04"/>
<stop offset="1" stop-color="#D92000"/>
</linearGradient>
<clipPath id="clip0_2_1584">
<rect width="70" height="68" fill="white"/>
</clipPath>
</defs>
</svg>
